<?xml version="1.0"?><svg version="1.2" baseProfile="tiny-ps" viewBox="0 0 224 224" xmlns="http://www.w3.org/2000/svg" xmlns:xlink="http://www.w3.org/1999/xlink"><title>SM2ARTA LLC</title><g><g fill="#cf5c5c" transform="matrix(.1 0 0 -.1 0 224)"><path d="m802 2100-73-19-62-33-61-33-58-58c-68-68-101-122-134-216l-24-69-6-89-7-88 13-60c6-33 21-86 32-118l21-58 41-59 42-60 52-44c72-61 144-101 232-127l75-22 210-6 211-6 27-17 26-18 11-40 11-40-7-34-6-34-25-24-25-23-156-3-157-4-37 11-37 11-33 40-34 39-228-39c-126-22-231-41-232-43-5-5 30-106 51-148 9-19 37-60 62-92l44-57H425L215 210 5 0h214l97 118c53 64 106 126 117 137l19 20-28-50c-15-27-52-89-81-137L290 0h1650l-53 88c-69 114-123 210-110 197 5-5 63-72 127-148L2022 0h203l-210 210-210 210h-106l35 46c49 63 85 143 102 222l14 67v130l-15 68-14 67-37 70c-80 152-202 247-389 300l-40 12-212 6-213 7-27 28-28 27v132l33 29 32 29h311l33-14c30-12 54-37 81-80l10-17 229 45c125 25 230 47 232 49s-3 28-12 58c-44 150-161 276-329 355l-70 32-77 16-77 16-198-1H875l-73-19z"/></g><g fill="#020101" transform="matrix(.1 0 0 -.1 0 224)"><path d="m802 2100-73-19-62-33-61-33-58-58c-68-68-101-122-134-216l-24-69-6-89-7-88 13-60c6-33 21-86 32-118l21-58 41-59 42-60 52-44c72-61 144-101 232-127l75-22 210-6 211-6 27-17 26-18 11-40 11-40-7-34-6-34-25-24-25-23-156-3-157-4-37 11-37 11-33 40-34 39-228-39c-126-22-231-41-233-43-7-7 43-133 72-182 15-26 55-76 89-109l61-62 60-36c33-20 96-49 140-65l80-28h460l80 28c140 47 234 119 311 234l37 56 24 69 24 69 6 82 6 82-13 74-12 73-39 77-39 78-41 47c-75 85-182 149-314 186l-40 12-212 6-213 7-27 28-28 27v132l33 29 32 29h311l33-14c30-12 54-37 81-80l10-17 229 45c125 25 230 47 232 49s-3 28-12 58c-44 150-161 276-329 355l-70 32-77 16-77 16-198-1H875l-73-19z"/></g></g></svg>