<svg xmlns="http://www.w3.org/2000/svg" xmlns:xlink="http://www.w3.org/1999/xlink" contentStyleType="text/css" data-diagram-type="DESCRIPTION" height="1021px" preserveAspectRatio="none" style="width:2537px;height:1021px;background:#FFFFFF;" version="1.1" viewBox="0 0 2537 1021" width="2537px" zoomAndPan="magnify"><title>SM2ARTA - Prod + Dev/Stage</title><defs/><g><g class="title" data-source-line="1"><text fill="#000000" font-family="sans-serif" font-size="14" font-weight="bold" lengthAdjust="spacing" textLength="230.6924" x="1146.4107" y="22.9951">SM2ARTA - Prod + Dev/Stage</text></g><!--cluster PROD--><g class="cluster" data-entity="PROD" data-source-line="19" data-uid="ent0007" id="cluster_PROD"><rect fill="none" height="699.18" rx="6" ry="6" style="stroke:#181818;stroke-width:1;" width="1047" x="1319" y="182.0869"/><text fill="#000000" font-family="sans-serif" font-size="14" font-weight="bold" lengthAdjust="spacing" textLength="172.2109" x="1756.3945" y="197.082">OVH VPS - Production</text><text fill="#000000" font-family="sans-serif" font-size="14" font-weight="bold" lengthAdjust="spacing" textLength="147.5059" x="1768.7471" y="213.3789">(Ubuntu + Docker)</text></g><!--cluster docker_prod--><g class="cluster" data-entity="docker_prod" data-source-line="20" data-uid="ent0008" id="cluster_docker_prod"><rect fill="none" height="616.18" rx="2.5" ry="2.5" style="stroke:#181818;stroke-width:1;" width="999" x="1343" y="241.0869"/><path d="M1553.7441,241.0869 L1553.7441,250.3837 L1543.7441,260.3837 L1343,260.3837" fill="none" style="stroke:#181818;stroke-width:1;"/><text fill="#000000" font-family="sans-serif" font-size="14" font-weight="bold" lengthAdjust="spacing" textLength="200.7441" x="1346" y="255.082">Docker Engine / Compose</text></g><!--cluster bk--><g class="cluster" data-entity="bk" data-source-line="32" data-uid="ent0017" id="cluster_bk"><rect fill="none" height="386.79" rx="2.5" ry="2.5" style="stroke:#181818;stroke-width:1;" width="480" x="1704" y="284.0869"/><path d="M1907.9014,284.0869 L1907.9014,293.3837 L1897.9014,303.3837 L1704,303.3837" fill="none" style="stroke:#181818;stroke-width:1;"/><text fill="#000000" font-family="sans-serif" font-size="14" font-weight="bold" lengthAdjust="spacing" textLength="193.9014" x="1707" y="298.082">Backup Flow (Enhanced)</text></g><!--cluster NONPROD--><g class="cluster" data-entity="NONPROD" data-source-line="69" data-uid="ent0042" id="cluster_NONPROD"><rect fill="none" height="474.29" rx="6" ry="6" style="stroke:#181818;stroke-width:1;" width="969" x="7" y="225.0869"/><text fill="#000000" font-family="sans-serif" font-size="14" font-weight="bold" lengthAdjust="spacing" textLength="90.8428" x="446.0786" y="240.082">Dev / Stage</text><text fill="#000000" font-family="sans-serif" font-size="14" font-weight="bold" lengthAdjust="spacing" textLength="147.5059" x="417.7471" y="256.3789">(Ubuntu + Docker)</text></g><!--cluster docker_dev--><g class="cluster" data-entity="docker_dev" data-source-line="70" data-uid="ent0043" id="cluster_docker_dev"><rect fill="none" height="391.29" rx="2.5" ry="2.5" style="stroke:#181818;stroke-width:1;" width="921" x="31" y="284.0869"/><path d="M241.7441,284.0869 L241.7441,293.3837 L231.7441,303.3837 L31,303.3837" fill="none" style="stroke:#181818;stroke-width:1;"/><text fill="#000000" font-family="sans-serif" font-size="14" font-weight="bold" lengthAdjust="spacing" textLength="200.7441" x="34" y="298.082">Docker Engine / Compose</text></g><!--entity nginx--><g class="entity" data-entity="nginx" data-source-line="22" data-uid="ent0009" id="entity_nginx"><polygon fill="#F1F1F1" points="1358.96,463.6869,1368.96,453.6869,1507.043,453.6869,1507.043,506.2806,1497.043,516.2806,1358.96,516.2806,1358.96,463.6869" style="stroke:#181818;stroke-width:0.5;"/><line style="stroke:#181818;stroke-width:0.5;" x1="1497.043" x2="1507.043" y1="463.6869" y2="453.6869"/><line style="stroke:#181818;stroke-width:0.5;" x1="1358.96" x2="1497.043" y1="463.6869" y2="463.6869"/><line style="stroke:#181818;stroke-width:0.5;" x1="1497.043" x2="1497.043" y1="463.6869" y2="516.2806"/><text fill="#000000" font-family="sans-serif" font-size="14" lengthAdjust="spacing" textLength="40.4072" x="1407.7979" y="486.682">Nginx</text><text fill="#000000" font-family="sans-serif" font-size="14" lengthAdjust="spacing" textLength="108.083" x="1373.96" y="502.9789">(reverse proxy)</text></g><!--entity php--><g class="entity" data-entity="php" data-source-line="23" data-uid="ent0010" id="entity_php"><polygon fill="#F1F1F1" points="1534.35,607.2769,1544.35,597.2769,1657.6527,597.2769,1657.6527,649.8706,1647.6527,659.8706,1534.35,659.8706,1534.35,607.2769" style="stroke:#181818;stroke-width:0.5;"/><line style="stroke:#181818;stroke-width:0.5;" x1="1647.6527" x2="1657.6527" y1="607.2769" y2="597.2769"/><line style="stroke:#181818;stroke-width:0.5;" x1="1534.35" x2="1647.6527" y1="607.2769" y2="607.2769"/><line style="stroke:#181818;stroke-width:0.5;" x1="1647.6527" x2="1647.6527" y1="607.2769" y2="659.8706"/><text fill="#000000" font-family="sans-serif" font-size="14" lengthAdjust="spacing" textLength="83.3027" x="1549.35" y="630.272">Laravel App</text><text fill="#000000" font-family="sans-serif" font-size="14" lengthAdjust="spacing" textLength="71.9619" x="1555.0204" y="646.5689">(PHP-FPM)</text></g><!--entity pg--><g class="entity" data-entity="pg" data-source-line="24" data-uid="ent0011" id="entity_pg"><path d="M1660.62,781.0169 C1660.62,771.0169 1710.9965,771.0169 1710.9965,771.0169 C1710.9965,771.0169 1761.3729,771.0169 1761.3729,781.0169 L1761.3729,822.6106 C1761.3729,832.6106 1710.9965,832.6106 1710.9965,832.6106 C1710.9965,832.6106 1660.62,832.6106 1660.62,822.6106 L1660.62,781.0169" fill="#F1F1F1" style="stroke:#181818;stroke-width:0.5;"/><path d="M1660.62,781.0169 C1660.62,791.0169 1710.9965,791.0169 1710.9965,791.0169 C1710.9965,791.0169 1761.3729,791.0169 1761.3729,781.0169" fill="none" style="stroke:#181818;stroke-width:0.5;"/><text fill="#000000" font-family="sans-serif" font-size="14" lengthAdjust="spacing" textLength="80.7529" x="1670.62" y="808.012">PostgreSQL</text><text fill="#000000" font-family="sans-serif" font-size="14" lengthAdjust="spacing" textLength="80.083" x="1670.955" y="824.3089">(Local disk)</text></g><!--entity queue--><g class="entity" data-entity="queue" data-source-line="25" data-uid="ent0012" id="entity_queue"><rect fill="#F1F1F1" height="36.2969" rx="6" ry="6" style="stroke:#181818;stroke-width:0.5;" width="121.083" x="1373.46" y="783.6669"/><text fill="#000000" font-family="sans-serif" font-size="14" lengthAdjust="spacing" textLength="101.083" x="1383.46" y="806.662">Queue Worker</text></g><!--entity cron--><g class="entity" data-entity="cron" data-source-line="26" data-uid="ent0013" id="entity_cron"><rect fill="#F1F1F1" height="52.5938" rx="6" ry="6" style="stroke:#181818;stroke-width:0.5;" width="146.041" x="1541.98" y="458.6869"/><text fill="#000000" font-family="sans-serif" font-size="14" lengthAdjust="spacing" textLength="126.041" x="1551.98" y="481.682">Laravel Scheduler</text><text fill="#000000" font-family="sans-serif" font-size="14" lengthAdjust="spacing" textLength="41.8154" x="1594.0928" y="497.9789">(cron)</text></g><!--entity clam--><g class="entity" data-entity="clam" data-source-line="27" data-uid="ent0014" id="entity_clam"><rect fill="#F1F1F1" height="52.5938" rx="6" ry="6" style="stroke:#181818;stroke-width:0.5;" width="89.1387" x="1529.43" y="775.5169"/><text fill="#000000" font-family="sans-serif" font-size="14" lengthAdjust="spacing" textLength="55.0361" x="1546.4813" y="798.512">ClamAV</text><text fill="#000000" font-family="sans-serif" font-size="14" lengthAdjust="spacing" textLength="69.1387" x="1539.43" y="814.8089">(file scan)</text></g><!--entity vault--><g class="entity" data-entity="vault" data-source-line="29" data-uid="ent0015" id="entity_vault"><polygon fill="#F1F1F1" points="1945.42,772.3769,1955.42,762.3769,2176.5802,762.3769,2176.5802,831.2675,2166.5802,841.2675,1945.42,841.2675,1945.42,772.3769" style="stroke:#181818;stroke-width:0.5;"/><line style="stroke:#181818;stroke-width:0.5;" x1="2166.5802" x2="2176.5802" y1="772.3769" y2="762.3769"/><line style="stroke:#181818;stroke-width:0.5;" x1="1945.42" x2="2166.5802" y1="772.3769" y2="772.3769"/><line style="stroke:#181818;stroke-width:0.5;" x1="2166.5802" x2="2166.5802" y1="772.3769" y2="841.2675"/><text fill="#000000" font-family="sans-serif" font-size="14" lengthAdjust="spacing" textLength="146.248" x="1982.8761" y="795.372">HashiCorp Vault OSS</text><text fill="#000000" font-family="sans-serif" font-size="14" lengthAdjust="spacing" textLength="98.7451" x="2006.6275" y="811.6689">(KV + Transit)</text><text fill="#000000" font-family="sans-serif" font-size="14" lengthAdjust="spacing" textLength="191.1602" x="1960.42" y="827.9657">(Auto-unseal via AWS KMS)</text></g><!--entity vaultstore--><g class="entity" data-entity="vaultstore" data-source-line="30" data-uid="ent0016" id="entity_vaultstore"><path d="M2202.68,593.2769 L2243.68,593.2769 A3.75,3.75 0 0 1 2246.18,595.7769 L2253.18,614.2769 L2323.3148,614.2769 A2.5,2.5 0 0 1 2325.8148,616.7769 L2325.8148,661.3706 A2.5,2.5 0 0 1 2323.3148,663.8706 L2202.68,663.8706 A2.5,2.5 0 0 1 2200.18,661.3706 L2200.18,595.7769 A2.5,2.5 0 0 1 2202.68,593.2769" fill="#F1F1F1" style="stroke:#181818;stroke-width:0.5;"/><line style="stroke:#181818;stroke-width:0.5;" x1="2200.18" x2="2253.18" y1="614.2769" y2="614.2769"/><text fill="#000000" font-family="sans-serif" font-size="14" lengthAdjust="spacing" textLength="95.6348" x="2210.18" y="634.272">Vault Storage</text><text fill="#000000" font-family="sans-serif" font-size="14" lengthAdjust="spacing" textLength="80.083" x="2217.9559" y="650.5689">(Local disk)</text></g><!--entity dump--><g class="entity" data-entity="dump" data-source-line="33" data-uid="ent0018" id="entity_dump"><rect fill="#F1F1F1" height="52.5938" rx="6" ry="6" style="stroke:#181818;stroke-width:0.5;" width="85.0576" x="2035.47" y="602.2769"/><text fill="#000000" font-family="sans-serif" font-size="14" lengthAdjust="spacing" textLength="65.0576" x="2045.47" y="625.272">pg_dump</text><text fill="#000000" font-family="sans-serif" font-size="14" lengthAdjust="spacing" textLength="60.8467" x="2047.5755" y="641.5689">(.sql/.gz)</text></g><!--entity encrypt--><g class="entity" data-entity="encrypt" data-source-line="34" data-uid="ent0019" id="entity_encrypt"><rect fill="#F1F1F1" height="52.5938" rx="6" ry="6" style="stroke:#181818;stroke-width:0.5;" width="167.8955" x="1861.05" y="458.6869"/><text fill="#000000" font-family="sans-serif" font-size="14" lengthAdjust="spacing" textLength="53.833" x="1918.0813" y="481.682">Encrypt</text><text fill="#000000" font-family="sans-serif" font-size="14" lengthAdjust="spacing" textLength="147.8955" x="1871.05" y="497.9789">(Vault-managed key)</text></g><!--entity rclone--><g class="entity" data-entity="rclone" data-source-line="35" data-uid="ent0020" id="entity_rclone"><rect fill="#F1F1F1" height="52.5938" rx="6" ry="6" style="stroke:#181818;stroke-width:0.5;" width="99.9941" x="1720" y="319.0869"/><text fill="#000000" font-family="sans-serif" font-size="14" lengthAdjust="spacing" textLength="79.9941" x="1730" y="342.082">rclone sync</text><text fill="#000000" font-family="sans-serif" font-size="14" lengthAdjust="spacing" textLength="48.0635" x="1745.9653" y="358.3789">(to R2)</text></g><!--entity lifecycle--><g class="entity" data-entity="lifecycle" data-source-line="36" data-uid="ent0021" id="entity_lifecycle"><rect fill="#F1F1F1" height="52.5938" rx="6" ry="6" style="stroke:#181818;stroke-width:0.5;" width="169.3652" x="1855.32" y="319.0869"/><text fill="#000000" font-family="sans-serif" font-size="14" lengthAdjust="spacing" textLength="149.3652" x="1865.32" y="342.082">Retention &amp; Lifecycle</text><text fill="#000000" font-family="sans-serif" font-size="14" lengthAdjust="spacing" textLength="75.2227" x="1902.3913" y="358.3789">(R2 policy)</text></g><!--entity restoretest--><g class="entity" data-entity="restoretest" data-source-line="37" data-uid="ent0022" id="entity_restoretest"><rect fill="#F1F1F1" height="52.5938" rx="6" ry="6" style="stroke:#181818;stroke-width:0.5;" width="108.457" x="2059.77" y="319.0869"/><text fill="#000000" font-family="sans-serif" font-size="14" lengthAdjust="spacing" textLength="88.457" x="2069.77" y="342.082">Restore Test</text><text fill="#000000" font-family="sans-serif" font-size="14" lengthAdjust="spacing" textLength="67.1084" x="2080.4443" y="358.3789">(periodic)</text></g><!--entity nginx_dev--><g class="entity" data-entity="nginx_dev" data-source-line="72" data-uid="ent0044" id="entity_nginx_dev"><polygon fill="#F1F1F1" points="686.8,332.2369,696.8,322.2369,767.2072,322.2369,767.2072,358.5337,757.2072,368.5337,686.8,368.5337,686.8,332.2369" style="stroke:#181818;stroke-width:0.5;"/><line style="stroke:#181818;stroke-width:0.5;" x1="757.2072" x2="767.2072" y1="332.2369" y2="322.2369"/><line style="stroke:#181818;stroke-width:0.5;" x1="686.8" x2="757.2072" y1="332.2369" y2="332.2369"/><line style="stroke:#181818;stroke-width:0.5;" x1="757.2072" x2="757.2072" y1="332.2369" y2="368.5337"/><text fill="#000000" font-family="sans-serif" font-size="14" lengthAdjust="spacing" textLength="40.4072" x="701.8" y="355.232">Nginx</text></g><!--entity php_dev--><g class="entity" data-entity="php_dev" data-source-line="73" data-uid="ent0045" id="entity_php_dev"><polygon fill="#F1F1F1" points="446.35,463.6869,456.35,453.6869,569.6527,453.6869,569.6527,506.2806,559.6527,516.2806,446.35,516.2806,446.35,463.6869" style="stroke:#181818;stroke-width:0.5;"/><line style="stroke:#181818;stroke-width:0.5;" x1="559.6527" x2="569.6527" y1="463.6869" y2="453.6869"/><line style="stroke:#181818;stroke-width:0.5;" x1="446.35" x2="559.6527" y1="463.6869" y2="463.6869"/><line style="stroke:#181818;stroke-width:0.5;" x1="559.6527" x2="559.6527" y1="463.6869" y2="516.2806"/><text fill="#000000" font-family="sans-serif" font-size="14" lengthAdjust="spacing" textLength="83.3027" x="461.35" y="486.682">Laravel App</text><text fill="#000000" font-family="sans-serif" font-size="14" lengthAdjust="spacing" textLength="71.9619" x="467.0204" y="502.9789">(PHP-FPM)</text></g><!--entity pg_test--><g class="entity" data-entity="pg_test" data-source-line="74" data-uid="ent0046" id="entity_pg_test"><path d="M602.42,607.7769 C602.42,597.7769 669.9957,597.7769 669.9957,597.7769 C669.9957,597.7769 737.5714,597.7769 737.5714,607.7769 L737.5714,649.3706 C737.5714,659.3706 669.9957,659.3706 669.9957,659.3706 C669.9957,659.3706 602.42,659.3706 602.42,649.3706 L602.42,607.7769" fill="#F1F1F1" style="stroke:#181818;stroke-width:0.5;"/><path d="M602.42,607.7769 C602.42,617.7769 669.9957,617.7769 669.9957,617.7769 C669.9957,617.7769 737.5714,617.7769 737.5714,607.7769" fill="none" style="stroke:#181818;stroke-width:0.5;"/><text fill="#000000" font-family="sans-serif" font-size="14" lengthAdjust="spacing" textLength="115.1514" x="612.42" y="634.772">PostgreSQL Test</text><text fill="#000000" font-family="sans-serif" font-size="14" lengthAdjust="spacing" textLength="80.083" x="629.9542" y="651.0689">(Local disk)</text></g><!--entity pgadmin--><g class="entity" data-entity="pgadmin" data-source-line="75" data-uid="ent0047" id="entity_pgadmin"><rect fill="#F1F1F1" height="36.2969" rx="6" ry="6" style="stroke:#181818;stroke-width:0.5;" width="82.6377" x="691.68" y="466.8369"/><text fill="#000000" font-family="sans-serif" font-size="14" lengthAdjust="spacing" textLength="62.6377" x="701.68" y="489.832">pgAdmin</text></g><!--entity mailhog--><g class="entity" data-entity="mailhog" data-source-line="76" data-uid="ent0048" id="entity_mailhog"><rect fill="#F1F1F1" height="52.5938" rx="6" ry="6" style="stroke:#181818;stroke-width:0.5;" width="149.5" x="355.25" y="602.2769"/><text fill="#000000" font-family="sans-serif" font-size="14" lengthAdjust="spacing" textLength="56.417" x="401.7915" y="625.272">MailHog</text><text fill="#000000" font-family="sans-serif" font-size="14" lengthAdjust="spacing" textLength="129.5" x="365.25" y="641.5689">(dev mail capture)</text></g><!--entity stan--><g class="entity" data-entity="stan" data-source-line="77" data-uid="ent0049" id="entity_stan"><rect fill="#F1F1F1" height="52.5938" rx="6" ry="6" style="stroke:#181818;stroke-width:0.5;" width="134.5498" x="801.73" y="319.0869"/><text fill="#000000" font-family="sans-serif" font-size="14" lengthAdjust="spacing" textLength="114.5498" x="811.73" y="342.082">NATS Streaming</text><text fill="#000000" font-family="sans-serif" font-size="14" lengthAdjust="spacing" textLength="41.1592" x="848.4253" y="358.3789">(stan)</text></g><!--entity node_build--><g class="entity" data-entity="node_build" data-source-line="78" data-uid="ent0050" id="entity_node_build"><rect fill="#F1F1F1" height="52.5938" rx="6" ry="6" style="stroke:#181818;stroke-width:0.5;" width="131.6992" x="47.15" y="319.0869"/><text fill="#000000" font-family="sans-serif" font-size="14" lengthAdjust="spacing" textLength="36.5381" x="94.7306" y="342.082">Node</text><text fill="#000000" font-family="sans-serif" font-size="14" lengthAdjust="spacing" textLength="111.6992" x="57.15" y="358.3789">(npm dev/build)</text></g><!--entity composer_cli--><g class="entity" data-entity="composer_cli" data-source-line="79" data-uid="ent0051" id="entity_composer_cli"><rect fill="#F1F1F1" height="36.2969" rx="6" ry="6" style="stroke:#181818;stroke-width:0.5;" width="128.1719" x="213.91" y="327.2369"/><text fill="#000000" font-family="sans-serif" font-size="14" lengthAdjust="spacing" textLength="108.1719" x="223.91" y="350.232">Composer (CLI)</text></g><!--entity artisan_cli--><g class="entity" data-entity="artisan_cli" data-source-line="80" data-uid="ent0052" id="entity_artisan_cli"><rect fill="#F1F1F1" height="36.2969" rx="6" ry="6" style="stroke:#181818;stroke-width:0.5;" width="106.5361" x="376.73" y="327.2369"/><text fill="#000000" font-family="sans-serif" font-size="14" lengthAdjust="spacing" textLength="86.5361" x="386.73" y="350.232">Artisan (CLI)</text></g><!--entity phpdoc--><g class="entity" data-entity="phpdoc" data-source-line="81" data-uid="ent0053" id="entity_phpdoc"><rect fill="#F1F1F1" height="52.5938" rx="6" ry="6" style="stroke:#181818;stroke-width:0.5;" width="133.4971" x="518.25" y="319.0869"/><text fill="#000000" font-family="sans-serif" font-size="14" lengthAdjust="spacing" textLength="113.4971" x="528.25" y="342.082">phpDocumentor</text><text fill="#000000" font-family="sans-serif" font-size="14" lengthAdjust="spacing" textLength="108.4453" x="530.7759" y="358.3789">(code/API docs)</text></g><!--entity user--><g class="entity" data-entity="user" data-source-line="12" data-uid="ent0002" id="entity_user"><ellipse cx="1057.9951" cy="51.2969" fill="#F1F1F1" rx="8" ry="8" style="stroke:#181818;stroke-width:0.5;"/><path d="M1057.9951,59.2969 L1057.9951,86.2969 M1044.9951,67.2969 L1070.9951,67.2969 M1057.9951,86.2969 L1044.9951,101.2969 M1057.9951,86.2969 L1070.9951,101.2969" fill="none" style="stroke:#181818;stroke-width:0.5;"/><text fill="#000000" font-family="sans-serif" font-size="14" lengthAdjust="spacing" textLength="31.9102" x="1042.04" y="115.792">User</text></g><!--entity cloudflare--><g class="entity" data-entity="cloudflare" data-source-line="13" data-uid="ent0003" id="entity_cloudflare"><path d="M1167.3759,323.9158 C1171.3505,317.7366 1177.1827,317.8838 1181.178,323.8923 C1184.5387,318.7791 1189.6087,317.4722 1193.3627,323.4607 C1197.125,316.3667 1202.2467,315.0641 1207.2258,322.2821 C1210.1446,316.906 1215.0116,316.6998 1218.8933,321.1373 C1222.4675,315.2919 1228.6224,315.1609 1231.3147,322.0008 C1234.7151,315.3845 1239.9797,316.2219 1244.1168,321.1865 C1248.6901,315.9324 1253.6283,315.4154 1257.1748,322.2917 C1261.8861,316.4005 1266.1346,316.4674 1269.5606,323.5215 C1273.4927,317.0419 1280.0366,316.3359 1283.5306,323.9556 C1286.8657,317.3278 1292.1955,315.6081 1297.1996,322.2343 C1302.5427,326.4394 1303.7001,330.4834 1297.388,334.8623 C1303.0821,337.2899 1302.8374,341.7729 1298.9652,345.605 C1304.5253,349.692 1304.1357,355.032 1297.631,357.7989 C1303.1579,361.501 1302.0524,367.0148 1296.274,369.3937 C1292.9922,375.5931 1288.4036,376.9322 1283.2604,371.4709 C1279.5767,378.5791 1274.4744,377.7782 1270.264,372.0022 C1266.6511,377.504 1262.7859,377.0689 1258.6982,372.5502 C1254.1281,380.0261 1248.4178,378.6317 1244.3218,372.0648 C1241.4055,379.1185 1237.5199,378.8033 1232.1918,374.6829 C1227.4948,380.2591 1220.7719,379.7741 1218.4598,372.1937 C1214.1774,377.9471 1209.568,376.8559 1205.829,371.5717 C1202.4372,376.9743 1196.282,378.3743 1192.8703,371.593 C1188.7836,376.4667 1184.1142,376.527 1180.884,370.6391 C1177.1928,375.7015 1171.2346,375.7264 1167.9856,370.1052 C1161.1871,368.2924 1159.8088,362.7274 1165.2942,358.1494 C1159.0048,356.745 1156.7984,352.3174 1161.029,346.918 C1157.2366,341.9759 1158.9305,336.444 1165.2858,335.1829 C1160.8528,330.9107 1160.9842,326.1799 1167.3759,323.9158" fill="#F1F1F1" style="stroke:#181818;stroke-width:0.5;"/><text fill="#000000" font-family="sans-serif" font-size="14" lengthAdjust="spacing" textLength="71.7568" x="1195.1241" y="342.082">Cloudflare</text><text fill="#000000" font-family="sans-serif" font-size="14" lengthAdjust="spacing" textLength="114.085" x="1173.96" y="358.3789">DNS / WAF / TLS</text></g><!--entity ghpages--><g class="entity" data-entity="ghpages" data-source-line="14" data-uid="ent0004" id="entity_ghpages"><path d="M1000.5249,324.1729 C1003.1758,317.3099 1009.35,317.7859 1013.2579,322.8286 C1015.8449,316.505 1021.8372,317.3373 1025.2343,321.9409 C1028.5157,315.7867 1032.7974,315.7577 1036.6994,321.3344 C1040.2366,317.4159 1044.9065,317.3407 1046.9583,322.9361 C1048.9264,316.3575 1054.0146,315.1264 1058.3792,320.6802 C1062.495,315.5475 1066.6712,315.3775 1070.0979,321.4039 C1074.589,314.5853 1078.7513,315.138 1082.8161,321.806 C1086.2954,317.1782 1089.8344,316.237 1093.2413,321.8795 C1096.9979,316.5315 1102.7329,316.7633 1106.2293,322.193 C1109.4569,316.3964 1114.9378,316.289 1117.7287,322.6074 C1124.4429,325.3678 1125.6408,329.662 1120.0941,334.8008 C1127.6629,337.4373 1127.06,342.678 1122.2865,347.4531 C1126.8,351.1587 1125.6641,355.9185 1120.0707,357.3646 C1124.9966,363.3579 1123.6362,367.2253 1116.1035,368.9537 C1113.6369,373.6892 1109.4333,374.1925 1106.0705,369.9559 C1103.2851,375.8055 1097.8151,376.399 1094.1629,370.8626 C1091.1585,376.3507 1086.6683,377.8543 1082.342,372.2745 C1078.3029,377.9386 1074.5133,377.9927 1070.5778,372.1684 C1067.3352,376.8304 1063.1257,376.1943 1060.1851,371.8211 C1057.4578,377.3646 1051.6236,377.1925 1048.4182,372.3634 C1045.0938,377.8561 1039.1065,378.4132 1036.2932,371.8494 C1032.3571,377.281 1026.7462,377.669 1023.8785,370.7734 C1020.8877,375.3201 1015.9203,374.1617 1013.7794,369.8089 C1009.5957,376.6222 1005.3887,376.042 1001.2025,369.8114 C995.8134,367.3015 994.3945,363.2875 999.1847,358.896 C992.9235,355.4935 993.4289,351.186 998.4396,347.0732 C993.6479,341.4426 992.989,336.9695 1001.0163,333.8336 C995.9661,331.0164 996.1717,327.4684 1000.5249,324.1729" fill="#F1F1F1" style="stroke:#181818;stroke-width:0.5;"/><text fill="#000000" font-family="sans-serif" font-size="14" lengthAdjust="spacing" textLength="94.7803" x="1010.6147" y="342.082">GitHub Pages</text><text fill="#000000" font-family="sans-serif" font-size="14" lengthAdjust="spacing" textLength="101.3496" x="1007.33" y="358.3789">(Admin Guide)</text></g><!--entity r2--><g class="entity" data-entity="r2" data-source-line="15" data-uid="ent0005" id="entity_r2"><path d="M2391.1119,463.8251 C2394.0416,457.9497 2399.2501,457.8478 2403.0111,462.9216 C2406.583,455.6573 2411.5923,456.0724 2416.7156,461.2068 C2420.4045,455.0841 2426.6366,456.524 2429.4211,462.1823 C2431.9239,455.7083 2437.6676,456.1943 2441.0692,461.2763 C2445.3067,456.1084 2450.8811,455.9553 2454.272,462.2512 C2457.2242,456.7883 2461.8796,456.4959 2465.8396,461.0923 C2471.3515,453.6926 2475.6025,455.9216 2480.1189,462.1365 C2483.6056,457.9293 2488.3721,457.2716 2491.0982,462.9787 C2495.1238,456.048 2499.4173,456.8317 2504.1294,462.2545 C2508.3357,457.2961 2513.6403,457.3106 2517.139,463.1102 C2523.8057,464.5238 2524.1563,468.6444 2520.8645,473.5961 C2528.747,474.4779 2529.3582,480.5985 2525.3648,485.844 C2530.5138,491.1217 2528.5779,496.9998 2521.18,497.9351 C2525.6546,503.1163 2523.2614,508.6136 2517.1091,510.2946 C2513.3511,515.7518 2508.3243,515.6397 2504.5385,510.327 C2501.9392,517.8336 2496.4454,518.4985 2491.8206,512.1918 C2488.6105,518.4051 2484.813,519.8802 2479.8426,513.9245 C2476.7543,519.9447 2472.4634,521.0205 2467.6945,515.7295 C2463.8009,521.4575 2457.6131,523.4998 2453.6038,515.8514 C2449.977,521.4167 2445.5004,521.0293 2442.2352,515.4815 C2437.5867,521.8312 2431.8938,519.5476 2429.5453,513.1854 C2424.8164,518.7758 2417.9765,518.3651 2415.2872,510.9495 C2412.2937,517.0655 2407.1711,517.2264 2403.6489,511.4677 C2398.6981,516.7352 2393.6378,515.5263 2390.4841,509.3927 C2384.7237,507.9346 2382.9464,502.8459 2387.1816,498.3882 C2379.4408,497.1108 2377.9021,492.2309 2382.3616,486.1489 C2378.6038,480.7005 2379.3468,474.7707 2387.2376,473.996 C2383.7314,468.9382 2384.769,465.1312 2391.1119,463.8251" fill="#F1F1F1" style="stroke:#181818;stroke-width:0.5;"/><text fill="#000000" font-family="sans-serif" font-size="14" lengthAdjust="spacing" textLength="94.8418" x="2405.577" y="481.682">Cloudflare R2</text><text fill="#000000" font-family="sans-serif" font-size="14" lengthAdjust="spacing" textLength="112.0957" x="2396.95" y="497.9789">(Private bucket)</text></g><!--entity awskms--><g class="entity" data-entity="awskms" data-source-line="16" data-uid="ent0006" id="entity_awskms"><path d="M1993.2079,954.061 C1995.5474,947.3738 2000.8038,948.0918 2004.7786,952.3289 C2007.7949,946.3295 2013.1682,947.0297 2016.6907,951.7671 C2019.897,946.9085 2024.4122,948.1258 2026.9397,952.5191 C2030.1652,946.4418 2035.9234,947.3621 2038.5605,953.0979 C2041.6708,947.0996 2046.2996,946.6454 2049.9401,952.5928 C2052.66,946.7386 2058.8709,945.4205 2062.9891,950.9963 C2066.0916,946.4484 2071.123,946.9393 2073.6858,951.6217 C2077.2344,946.2698 2082.2519,945.8632 2085.115,952.2871 C2088.7416,946.5958 2094.3853,947.8789 2097.0023,953.3612 C2099.7333,947.6536 2105.2699,947.097 2108.2985,953.0734 C2111.646,947.5844 2115.5949,948.8101 2118.8026,953.2218 C2122.2105,947.839 2126.4017,947.174 2130.4221,952.5609 C2136.7079,953.4744 2139.8667,958.2607 2135.8202,964.0351 C2142.8607,965.6352 2143.9684,971.1294 2138.5158,975.6332 C2144.5513,981.6147 2141.3038,986.2543 2134.8748,988.7851 C2138.7031,992.7504 2138.6407,998.5549 2131.9707,999.7362 C2129.319,1005.2723 2123.6655,1006.7546 2119.6303,1001.288 C2116.7938,1007.0413 2111.8107,1007.4582 2107.5636,1002.9462 C2105.4328,1008.0898 2101.1389,1010.0568 2097.0195,1005.0023 C2093.2489,1011.6171 2088.6868,1010.5645 2084.3425,1005.6321 C2082.4317,1011.8345 2077.4815,1011.8591 2073.4089,1007.9756 C2070.1471,1013.0155 2066.5481,1014.3248 2062.2662,1009.081 C2058.5776,1013.9256 2053.2726,1013.6696 2050.4267,1008.121 C2046.1682,1014.3656 2041.1971,1012.4188 2038.1803,1006.8354 C2033.6331,1010.1115 2029.788,1009.0118 2027.9217,1003.6511 C2024.6964,1009.6964 2019.4266,1008.4742 2016.1688,1003.6865 C2011.0356,1008.766 2007.2409,1007.2456 2004.6254,1001.098 C2000.9339,1006.3376 1996.5928,1004.6979 1993.9969,999.934 C1987.6802,996.8047 1986.9357,993.216 1992.5478,988.5661 C1986.3587,985.4506 1986.9557,981.1016 1991.4066,976.9416 C1986.404,973.4973 1985.9778,967.8846 1991.6101,964.6159 C1987.2789,960.2647 1987.5881,956.9058 1993.2079,954.061" fill="#F1F1F1" style="stroke:#181818;stroke-width:0.5;"/><text fill="#000000" font-family="sans-serif" font-size="14" lengthAdjust="spacing" textLength="66.9033" x="2027.5476" y="972.262">AWS KMS</text><text fill="#000000" font-family="sans-serif" font-size="14" lengthAdjust="spacing" textLength="124.0586" x="1998.97" y="988.5589">(Auto-unseal key)</text></g><!--entity sendgrid--><g class="entity" data-entity="sendgrid" data-source-line="42" data-uid="ent0023" id="entity_sendgrid"><path d="M2387.01,788.6669 L2514.9846,788.6669 C2519.9846,788.6669 2519.9846,801.8153 2519.9846,801.8153 C2519.9846,801.8153 2519.9846,814.9637 2514.9846,814.9637 L2387.01,814.9637 C2382.01,814.9637 2382.01,801.8153 2382.01,801.8153 C2382.01,801.8153 2382.01,788.6669 2387.01,788.6669" fill="#F1F1F1" style="stroke:#181818;stroke-width:0.5;"/><path d="M2514.9846,788.6669 C2509.9846,788.6669 2509.9846,801.8153 2509.9846,801.8153 C2509.9846,814.9637 2514.9846,814.9637 2514.9846,814.9637" fill="none" style="stroke:#181818;stroke-width:0.5;"/><text fill="#000000" font-family="sans-serif" font-size="14" lengthAdjust="spacing" textLength="117.9746" x="2387.01" y="806.662">SendGrid (SMTP)</text></g><!--link user to cloudflare--><g class="link" data-entity-1="user" data-entity-2="cloudflare" data-source-line="45" data-uid="lnk24" id="link_user_cloudflare"><path d="M1074.2,85.7369 C1101.66,93.0369 1157.18,111.7369 1186,149.0869 C1223.51,197.7169 1230.5686,266.1281 1231.4086,307.6481" fill="none" id="user-to-cloudflare" style="stroke:#181818;stroke-width:1;"/><polygon fill="#181818" points="1231.53,313.6469,1235.3471,304.5678,1231.4289,308.6479,1227.3488,304.7296,1231.53,313.6469" style="stroke:#181818;stroke-width:1;"/></g><!--link cloudflare to nginx--><g class="link" data-entity-1="cloudflare" data-entity-2="nginx" data-source-line="46" data-uid="lnk25" id="link_cloudflare_nginx"><path d="M1276.08,377.0969 C1309.45,399.8269 1349.7611,427.2791 1383.1011,449.9891" fill="none" id="cloudflare-to-nginx" style="stroke:#181818;stroke-width:1;"/><polygon fill="#181818" points="1388.06,453.3669,1382.8736,444.9943,1383.9276,450.552,1378.3698,451.6061,1388.06,453.3669" style="stroke:#181818;stroke-width:1;"/></g><!--link nginx to php--><g class="link" data-entity-1="nginx" data-entity-2="php" data-source-line="47" data-uid="lnk26" id="link_nginx_php"><path d="M1468.37,516.7069 C1495.71,540.4569 1528.8502,569.2423 1556.1702,592.9723" fill="none" id="nginx-to-php" style="stroke:#181818;stroke-width:1;"/><polygon fill="#181818" points="1560.7,596.9069,1556.5283,587.9852,1556.9252,593.6281,1551.2822,594.0249,1560.7,596.9069" style="stroke:#181818;stroke-width:1;"/></g><!--link php to pg--><g class="link" data-entity-1="php" data-entity-2="pg" data-source-line="48" data-uid="lnk27" id="link_php_pg"><path d="M1614.53,660.0569 C1627.26,680.6969 1644.73,708.4569 1661,732.3769 C1669.69,745.1469 1676.0959,754.1301 1684.8459,765.9801" fill="none" id="php-to-pg" style="stroke:#181818;stroke-width:1;"/><polygon fill="#181818" points="1688.41,770.8069,1686.2817,761.1907,1685.44,766.7846,1679.8461,765.9428,1688.41,770.8069" style="stroke:#181818;stroke-width:1;"/><text fill="#000000" font-family="sans-serif" font-size="13" lengthAdjust="spacing" textLength="140.8228" x="1662" y="728.4438">PostgreSQL (SSL/TLS)</text></g><!--link php to queue--><g class="link" data-entity-1="php" data-entity-2="queue" data-source-line="49" data-uid="lnk28" id="link_php_queue"><path d="M1567.04,660.1869 C1533,696.1669 1481.8233,750.2682 1454.4933,779.1582" fill="none" id="php-to-queue" style="stroke:#181818;stroke-width:1;"/><polygon fill="#181818" points="1450.37,783.5169,1459.4608,779.7277,1453.8061,779.8846,1453.6492,774.23,1450.37,783.5169" style="stroke:#181818;stroke-width:1;"/></g><!--link cron to php--><g class="link" data-entity-1="cron" data-entity-2="php" data-source-line="50" data-uid="lnk29" id="link_cron_php"><path d="M1611.56,511.6269 C1608.34,535.6069 1604.3282,565.5202 1600.9082,591.0002" fill="none" id="cron-to-php" style="stroke:#181818;stroke-width:1;stroke-dasharray:7,7;"/><polygon fill="#181818" points="1600.11,596.9469,1605.2717,588.559,1600.7751,591.9913,1597.3428,587.4947,1600.11,596.9469" style="stroke:#181818;stroke-width:1;"/><text fill="#000000" font-family="sans-serif" font-size="13" lengthAdjust="spacing" textLength="90.9873" x="1607" y="559.3438">runs schedule</text></g><!--link php to clam--><g class="link" data-entity-1="php" data-entity-2="clam" data-source-line="51" data-uid="lnk30" id="link_php_clam"><path d="M1562.91,660.1169 C1548.97,675.2169 1534.3,694.6369 1527,715.3769 C1519.52,736.6069 1528.5807,754.3038 1542.7807,770.7638" fill="none" id="php-to-clam" style="stroke:#181818;stroke-width:1;stroke-dasharray:7,7;"/><polygon fill="#181818" points="1546.7,775.3069,1543.8498,765.8795,1543.4339,771.521,1537.7924,771.1052,1546.7,775.3069" style="stroke:#181818;stroke-width:1;"/><text fill="#000000" font-family="sans-serif" font-size="13" lengthAdjust="spacing" textLength="92.0791" x="1528" y="728.4438">scans uploads</text></g><!--link php to sendgrid--><g class="link" data-entity-1="php" data-entity-2="sendgrid" data-source-line="52" data-uid="lnk31" id="link_php_sendgrid"><path d="M1627.55,660.2869 C1647.66,677.6969 1675.27,697.8369 1704,707.3769 C1755.37,724.4169 2137.56,706.7969 2191,715.3769 C2278.26,729.3769 2370.4571,765.7688 2417.3671,785.9188" fill="none" id="php-to-sendgrid" style="stroke:#181818;stroke-width:1;"/><polygon fill="#181818" points="2422.88,788.2869,2416.1893,781.0595,2418.2859,786.3135,2413.0319,788.4101,2422.88,788.2869" style="stroke:#181818;stroke-width:1;"/><text fill="#000000" font-family="sans-serif" font-size="13" lengthAdjust="spacing" textLength="79.3267" x="2265" y="728.4438">SMTP (prod)</text></g><!--link user to ghpages--><g class="link" data-entity-1="user" data-entity-2="ghpages" data-source-line="53" data-uid="lnk32" id="link_user_ghpages"><path d="M1058,119.5469 C1058,171.8469 1058,259.5469 1058,307.8069" fill="none" id="user-to-ghpages" style="stroke:#181818;stroke-width:1;"/><polygon fill="#181818" points="1058,313.8069,1062,304.8069,1058,308.8069,1054,304.8069,1058,313.8069" style="stroke:#181818;stroke-width:1;"/><text fill="#000000" font-family="sans-serif" font-size="13" lengthAdjust="spacing" textLength="118.0347" x="1059" y="162.1538">view Admin Guide</text></g><!--link php to vault--><g class="link" data-entity-1="php" data-entity-2="vault" data-source-line="56" data-uid="lnk33" id="link_php_vault"><path d="M1628.23,660.0569 C1648.38,677.1469 1675.79,697.0469 1704,707.3769 C1747.12,723.1569 1762.91,702.5569 1807,715.3769 C1822.46,719.8669 1824.13,726.1969 1839,732.3769 C1872.8,746.4169 1904.7995,757.3514 1939.4295,767.8814" fill="none" id="php-to-vault" style="stroke:#181818;stroke-width:1;"/><polygon fill="#181818" points="1945.17,769.6269,1937.723,763.1816,1940.3863,768.1723,1935.3956,770.8356,1945.17,769.6269" style="stroke:#181818;stroke-width:1;"/><text fill="#000000" font-family="sans-serif" font-size="13" lengthAdjust="spacing" textLength="278.2432" x="1840" y="728.4438">TLS (secrets + CipherSweet keys / Transit)</text></g><!--link vault to awskms--><g class="link" data-entity-1="vault" data-entity-2="awskms" data-source-line="57" data-uid="lnk34" id="link_vault_awskms"><path d="M2061,841.3569 C2061,872.3169 2061,909.2069 2061,937.8669" fill="none" id="vault-to-awskms" style="stroke:#181818;stroke-width:1;"/><polygon fill="#181818" points="2061,943.8669,2065,934.8669,2061,938.8669,2057,934.8669,2061,943.8669" style="stroke:#181818;stroke-width:1;"/><text fill="#000000" font-family="sans-serif" font-size="13" lengthAdjust="spacing" textLength="77.7017" x="2062" y="910.3338">Auto-unseal</text></g><!--link vaultstore to vault--><!--link dump to pg--><g class="link" data-entity-1="dump" data-entity-2="pg" data-source-line="61" data-uid="lnk36" id="link_dump_pg"><path d="M2097.26,655.0569 C2108.34,671.3569 2121.19,693.4869 2127,715.3769 C2128.94,722.6769 2131.93,726.6469 2127,732.3769 C2097.83,766.2669 1972.13,755.1369 1928,762.3769 C1870.99,771.7169 1811.6324,782.3393 1767.7024,790.3593" fill="none" id="dump-to-pg" style="stroke:#181818;stroke-width:1;stroke-dasharray:7,7;"/><polygon fill="#181818" points="1761.8,791.4369,1771.372,793.7555,1766.7187,790.5389,1769.9353,785.8856,1761.8,791.4369" style="stroke:#181818;stroke-width:1;"/><text fill="#000000" font-family="sans-serif" font-size="13" lengthAdjust="spacing" textLength="52.6221" x="2130" y="728.4438">read DB</text></g><!--link encrypt to dump--><g class="link" data-entity-1="encrypt" data-entity-2="dump" data-source-line="62" data-uid="lnk37" id="link_encrypt_dump"><path d="M1969.09,511.6269 C1993.19,537.2869 2025.9427,572.1531 2049.9827,597.7531" fill="none" id="encrypt-to-dump" style="stroke:#181818;stroke-width:1;"/><polygon fill="#181818" points="2054.09,602.1269,2050.845,592.828,2050.6673,598.482,2045.0132,598.3043,2054.09,602.1269" style="stroke:#181818;stroke-width:1;"/></g><!--link rclone to encrypt--><g class="link" data-entity-1="rclone" data-entity-2="encrypt" data-source-line="63" data-uid="lnk38" id="link_rclone_encrypt"><path d="M1802.51,371.9469 C1833.84,396.5869 1876.2837,429.9479 1907.6537,454.6179" fill="none" id="rclone-to-encrypt" style="stroke:#181818;stroke-width:1;"/><polygon fill="#181818" points="1912.37,458.3269,1907.7682,449.6192,1908.4398,455.2361,1902.8229,455.9076,1912.37,458.3269" style="stroke:#181818;stroke-width:1;"/></g><!--link rclone to r2--><g class="link" data-entity-1="rclone" data-entity-2="r2" data-source-line="64" data-uid="lnk39" id="link_rclone_r2"><path d="M1820.17,369.7269 C1826.13,372.1969 1832.16,374.5769 1838,376.6869 C1910.94,402.9769 1930.07,408.0169 2006,423.6869 C2076.17,438.1569 2268.4824,462.0444 2375.8524,474.8844" fill="none" id="rclone-to-r2" style="stroke:#181818;stroke-width:1;"/><polygon fill="#181818" points="2381.81,475.5969,2373.3486,470.5565,2376.8454,475.0032,2372.3987,478.4999,2381.81,475.5969" style="stroke:#181818;stroke-width:1;"/><text fill="#000000" font-family="sans-serif" font-size="13" lengthAdjust="spacing" textLength="80.4565" x="2007" y="419.7538">off-site copy</text></g><!--link lifecycle to r2--><g class="link" data-entity-1="lifecycle" data-entity-2="r2" data-source-line="65" data-uid="lnk40" id="link_lifecycle_r2"><path d="M2001.79,372.1769 C2042.95,388.6269 2098.55,409.4469 2149,423.6869 C2227.45,445.8269 2313.5998,461.9015 2375.6898,472.1315" fill="none" id="lifecycle-to-r2" style="stroke:#181818;stroke-width:1;"/><polygon fill="#181818" points="2381.61,473.1069,2373.38,467.697,2376.6765,472.294,2372.0794,475.5905,2381.61,473.1069" style="stroke:#181818;stroke-width:1;"/><text fill="#000000" font-family="sans-serif" font-size="13" lengthAdjust="spacing" textLength="104.5522" x="2150" y="419.7538">retention/expiry</text></g><!--link restoretest to r2--><g class="link" data-entity-1="restoretest" data-entity-2="r2" data-source-line="66" data-uid="lnk41" id="link_restoretest_r2"><path d="M2168.47,368.4969 C2226.3,391.9669 2312.4004,426.9207 2376.0004,452.7307" fill="none" id="restoretest-to-r2" style="stroke:#181818;stroke-width:1;stroke-dasharray:7,7;"/><polygon fill="#181818" points="2381.56,454.9869,2374.7247,447.8962,2376.927,453.1067,2371.7164,455.309,2381.56,454.9869" style="stroke:#181818;stroke-width:1;"/><text fill="#000000" font-family="sans-serif" font-size="13" lengthAdjust="spacing" textLength="97.9063" x="2304" y="419.7538">sample restore</text></g><!--link user to nginx_dev--><g class="link" data-entity-1="user" data-entity-2="nginx_dev" data-source-line="86" data-uid="lnk54" id="link_user_nginx_dev"><path d="M1041.85,82.5769 C995.14,85.2769 858.47,99.5169 784,174.0869 C743.24,214.9069 732.1777,279.6919 728.8677,315.8019" fill="none" id="user-to-nginx_dev" style="stroke:#181818;stroke-width:1;"/><polygon fill="#181818" points="728.32,321.7769,733.1248,313.1796,728.7764,316.7977,725.1582,312.4493,728.32,321.7769" style="stroke:#181818;stroke-width:1;"/></g><!--link nginx_dev to php_dev--><g class="link" data-entity-1="nginx_dev" data-entity-2="php_dev" data-source-line="87" data-uid="lnk55" id="link_nginx_dev_php_dev"><path d="M691.33,368.7969 C654.72,391.7969 602.6002,424.5445 561.8302,450.1645" fill="none" id="nginx_dev-to-php_dev" style="stroke:#181818;stroke-width:1;"/><polygon fill="#181818" points="556.75,453.3569,566.4986,451.9551,560.9835,450.6965,562.242,445.1814,556.75,453.3569" style="stroke:#181818;stroke-width:1;"/></g><!--link php_dev to pg_test--><g class="link" data-entity-1="php_dev" data-entity-2="pg_test" data-source-line="88" data-uid="lnk56" id="link_php_dev_pg_test"><path d="M532.8,516.4569 C545.58,531.3269 561.84,549.0369 578,563.2769 C591.74,575.3869 602.857,583.8759 617.667,594.0659" fill="none" id="php_dev-to-pg_test" style="stroke:#181818;stroke-width:1;"/><polygon fill="#181818" points="622.61,597.4669,617.4629,589.07,618.4908,594.6327,612.9282,595.6607,622.61,597.4669" style="stroke:#181818;stroke-width:1;"/><text fill="#000000" font-family="sans-serif" font-size="13" lengthAdjust="spacing" textLength="140.8228" x="579" y="559.3438">PostgreSQL (SSL/TLS)</text></g><!--link pgadmin to pg_test--><g class="link" data-entity-1="pgadmin" data-entity-2="pg_test" data-source-line="89" data-uid="lnk57" id="link_pgadmin_pg_test"><path d="M735.06,503.6169 C736.23,519.7869 736.1,544.0769 728,563.2769 C722.68,575.8869 717.9003,583.2479 708.6803,593.1879" fill="none" id="pgadmin-to-pg_test" style="stroke:#181818;stroke-width:1;"/><polygon fill="#181818" points="704.6,597.5869,713.6531,593.7086,708.0003,593.9211,707.7878,588.2682,704.6,597.5869" style="stroke:#181818;stroke-width:1;"/></g><!--link php_dev to mailhog--><g class="link" data-entity-1="php_dev" data-entity-2="mailhog" data-source-line="90" data-uid="lnk58" id="link_php_dev_mailhog"><path d="M452.22,516.4969 C442.05,524.7569 432.82,534.6869 427,546.2769 C418.38,563.4469 418.6328,579.4237 421.8328,596.1537" fill="none" id="php_dev-to-mailhog" style="stroke:#181818;stroke-width:1;"/><polygon fill="#181818" points="422.96,602.0469,425.198,592.4557,422.0207,597.1359,417.3404,593.9586,422.96,602.0469" style="stroke:#181818;stroke-width:1;"/><text fill="#000000" font-family="sans-serif" font-size="13" lengthAdjust="spacing" textLength="113.9341" x="428" y="559.3438">SMTP (dev/stage)</text></g><!--link node_build to php_dev--><g class="link" data-entity-1="node_build" data-entity-2="php_dev" data-source-line="91" data-uid="lnk59" id="link_node_build_php_dev"><path d="M179.1,370.6469 C184.81,372.6969 190.51,374.7369 196,376.6869 C282.52,407.3469 377.2979,439.7398 440.3379,461.1198" fill="none" id="node_build-to-php_dev" style="stroke:#181818;stroke-width:1;stroke-dasharray:7,7;"/><polygon fill="#181818" points="446.02,463.0469,438.7816,456.3682,441.2849,461.441,436.2121,463.9443,446.02,463.0469" style="stroke:#181818;stroke-width:1;"/></g><!--link composer_cli to php_dev--><g class="link" data-entity-1="composer_cli" data-entity-2="php_dev" data-source-line="92" data-uid="lnk60" id="link_composer_cli_php_dev"><path d="M307.13,363.8169 C344.72,386.3069 405.6111,422.7265 451.6611,450.2765" fill="none" id="composer_cli-to-php_dev" style="stroke:#181818;stroke-width:1;stroke-dasharray:7,7;"/><polygon fill="#181818" points="456.81,453.3569,451.1402,445.3037,452.5193,450.7899,447.0331,452.1689,456.81,453.3569" style="stroke:#181818;stroke-width:1;"/></g><!--link artisan_cli to php_dev--><g class="link" data-entity-1="artisan_cli" data-entity-2="php_dev" data-source-line="93" data-uid="lnk61" id="link_artisan_cli_php_dev"><path d="M439.88,363.8169 C452.63,386.3069 472.0607,420.5874 487.6807,448.1374" fill="none" id="artisan_cli-to-php_dev" style="stroke:#181818;stroke-width:1;stroke-dasharray:7,7;"/><polygon fill="#181818" points="490.64,453.3569,489.6807,443.5548,488.1739,449.0073,482.7215,447.5005,490.64,453.3569" style="stroke:#181818;stroke-width:1;"/></g><!--link stan to php_dev--><g class="link" data-entity-1="stan" data-entity-2="php_dev" data-source-line="94" data-uid="lnk62" id="link_stan_php_dev"><path d="M801.52,372.1069 C735.1,397.4269 640.1065,433.6297 575.6265,458.2097" fill="none" id="stan-to-php_dev" style="stroke:#181818;stroke-width:1;stroke-dasharray:7,7;"/><polygon fill="#181818" points="570.02,460.3469,579.8545,460.8787,574.692,458.5659,577.0049,453.4034,570.02,460.3469" style="stroke:#181818;stroke-width:1;"/></g><!--link phpdoc to php_dev--><g class="link" data-entity-1="phpdoc" data-entity-2="php_dev" data-source-line="95" data-uid="lnk63" id="link_phpdoc_php_dev"><path d="M570.7,371.9469 C557.82,394.9469 541.8095,423.5606 528.1195,448.0306" fill="none" id="phpdoc-to-php_dev" style="stroke:#181818;stroke-width:1;stroke-dasharray:7,7;"/><polygon fill="#181818" points="525.19,453.2669,533.075,447.3655,527.6312,448.9033,526.0934,443.4595,525.19,453.2669" style="stroke:#181818;stroke-width:1;"/></g><!--SRC=[dLRRRkCs47tNLmnSeEjWuHZrMmgqWDQvBTPnl9RZF7IBW9PecR1CQadAYRl8ltU6f6Jvqg9e0biIvynmE7Fco5ROWaFoC8YdinXwCD4gWuzmpRVznBASHv5P2raopJQWUMgPp17_8mAOgafcGwKbr_3B01UI5SlKgv0vB5bXUFJUSYrPkiPeYTsXTnEd1SZuabM5dV4t6nSYbnikBQJunNKB9PNbdvJEk1wgGcduwUhgwjYCE-NQv-OWjrVq7qKijVZuP31TPg32QvGMgigWCwJBic2QVvFNumJwy1pVulTib7G8cpRsskDEsFjg0HCyalackt6s4HBkAf7n2-UHhqeodMu0qm7Y9rficUMmgD8rjzv53sfq_9p0buU4ubPMzIffE2jWpNSUo5xDUcEYwCDl9tymcJvUFmrddn_7S6gDGXEWypY_X_aa2UskKYkKnEsU5fMq5NLVOLxQRqSXNR-NM67qzJQuaRcG78iqL9jI6UwmcREzbCIX7n7w0BOaGwSnWjzm1ystN1iEY7WBnw4uRote23kvvGN4PKcLkf_qRYSF7bgkIWVCc6KBXc4w4sLihddoTOJOaKgnJfamwm3F7NhFsixNYbSSdfN6B1taEoqSe-eCadJ5iwhW6cEdMaaVbUwEFOO5syHpX2q5FfgKrLXSRvVXdfcLm94fOKvaXyU4klnbZYMVQIQDi1T7NTyA1e4FFkIM75t8fIfm3g3ZGoL8RkpjcJ8u3uDcxbC9VQGvgKguBTGhT6_aYicKPzvZiNODFpfacRzarOQQScc-5_tB_2-FfiLJz8rCzQwqY7RvzJPCOdhPdiRS0quzDOu1CiliP8hULk78X0bnXbE7ARUe4qXX-1b6OidJNLfG8QO3A5KXqh1XKPlEHN3rWHbUqR7aMgXCf65RRxHuSPxl4NtUeyYH1pe9bzcT5XbqauVPnFiONCjn3QVK3oBH6PPOQmDTchcBY0G8UhtVJzJ5wmHP_6YuR_TC_CUFly_XLzZJ7pTFHdqKh8i6uRbDT8NBI-UC7XfvXGJrn7PGiX5FqKZ4HMKi2yKoqyIfpu80EY1qoyFyWzQXUIluAxIqS7_w8RLQeLeaFCLI6b-APWj7KGo0-KFN1CX768fonNNoohabtXYIv30caNSXPw-7wDsQcsXFUkZziH9PnkMVzKRxjC8C-6I8nxvIL5hDMGRNdw90KxUJOtgW9ptN56ujwG7wgkMoXqboI5MvYnhUxG6wPcoVlvL2xw8MnrmA3cNOfdHlop2yvmJ_-cPELPt5TpV_glZuFYUSzH9nLkZ7Z-F_eVKP1ZwL-hso4-0_gti3FgVmzNIUolnBCvi7SkMO622CxeyX3qmKzoh7c7IA3Jv1oafRwV0MfvMLEdcBZEDPWgL4Xc1CyZQs5dowEu7ZmH4aI_gHi-qlAb44dQMIlBZdanUABxI6xd3qERnBmj9BMeXZUAojC4osqCold0DZdR6l5Vt0KkxLXbdquybdwgXfMe4FjSvzsFyQ3AFIpFw-nSrThLHkDLo3Oha-_QDi-HwreGVkeHcD2b4j3ULq4UthM2kTsxnTiGD3gpW7wzIzWmLVX_RItm00]--></g></svg>